<?xml version="1.0" standalone="no"?>
<!DOCTYPE svg PUBLIC "-//W3C//DTD SVG 20010904//EN"
 "http://www.w3.org/TR/2001/REC-SVG-20010904/DTD/svg10.dtd">
<svg version="1.0" xmlns="http://www.w3.org/2000/svg"
 width="500.000000pt" height="500.000000pt" viewBox="0 0 500.000000 500.000000"
 preserveAspectRatio="xMidYMid meet">

<g transform="translate(0.000000,500.000000) scale(0.100000,-0.100000)"
fill="#000000" stroke="none">
<path d="M936 4116 c-5 -31 -47 -1227 -46 -1301 0 -31 17 8 74 180 166 496
272 713 419 856 66 65 165 119 257 143 l55 13 8 -101 c12 -168 3 -2242 -11
-2300 -18 -77 -50 -133 -87 -156 -40 -25 -133 -45 -288 -64 -104 -13 -63 -14
538 -15 598 -1 660 -3 770 -21 185 -31 493 -47 614 -32 235 30 409 119 523
269 75 99 92 156 92 298 0 96 -4 134 -22 191 -38 123 -119 224 -249 311 l-52
35 13 32 c8 17 82 179 165 360 83 181 150 330 148 332 -1 2 -43 16 -92 33
-116 38 -261 67 -405 81 -63 6 -116 13 -119 16 -4 4 27 545 46 797 l6 79 -41
-21 c-117 -60 -304 -71 -1177 -71 -842 0 -969 8 -1095 69 l-39 19 -5 -32z
m1700 -181 c158 -77 268 -239 379 -557 19 -55 35 -104 35 -108 0 -4 -34 -16
-76 -25 -256 -57 -422 -204 -485 -428 -18 -64 -23 -107 -23 -197 0 -178 38
-280 144 -393 33 -36 60 -68 60 -72 0 -4 -51 -147 -112 -317 -108 -295 -114
-308 -125 -280 -31 75 -35 247 -31 1337 1 600 6 1095 11 1102 10 16 131 -17
223 -62z m712 -731 c65 -29 97 -53 139 -106 69 -86 100 -232 83 -395 -9 -86
-47 -273 -55 -273 -2 0 -99 47 -216 104 -196 95 -219 109 -272 165 -130 136
-163 330 -77 450 29 40 104 88 114 73 3 -4 32 -104 66 -222 33 -118 63 -216
65 -218 2 -3 6 6 9 19 5 24 26 360 26 411 0 26 2 27 33 22 17 -4 56 -17 85
-30z m-578 -1109 c45 -31 173 -100 284 -154 295 -144 354 -200 364 -342 12
-167 -91 -259 -288 -259 -257 0 -404 116 -456 361 -13 58 -15 107 -10 229 6
137 13 220 21 220 1 0 39 -25 85 -55z"/>
<path d="M1735 1074 c-192 -26 -308 -59 -348 -98 -22 -22 -22 -60 1 -77 14
-11 15 -11 5 1 -44 49 17 70 242 81 l180 9 28 30 c31 35 36 71 10 69 -10 -1
-63 -7 -118 -15z"/>
<path d="M2895 1066 c-144 -47 -275 -135 -275 -184 0 -12 10 -31 23 -43 23
-21 49 -22 167 -4 46 7 66 -5 51 -33 -13 -24 -119 -92 -196 -127 -61 -26 -68
-41 -29 -55 43 -17 86 -11 149 19 108 51 156 122 120 177 -24 37 -60 46 -150
39 l-80 -6 33 30 c70 61 326 148 297 100 -4 -5 -2 -9 3 -9 13 0 23 44 15 67
-9 25 -34 53 -47 53 -6 -1 -42 -11 -81 -24z"/>
<path d="M2023 925 c-31 -45 -43 -55 -67 -55 -27 0 -28 -1 -12 -13 16 -12 14
-17 -23 -72 -42 -64 -87 -112 -97 -103 -3 3 6 28 19 55 37 73 40 89 21 108
-15 15 -18 14 -34 -12 -23 -39 -123 -128 -128 -114 -2 7 12 35 32 64 41 59 46
92 15 102 -25 8 -17 16 -68 -77 -48 -88 -52 -131 -12 -136 18 -3 37 10 77 49
30 29 54 51 54 48 0 -3 -5 -20 -11 -37 -7 -22 -7 -36 1 -51 14 -27 26 -26 67
5 23 17 33 21 33 11 0 -22 34 -47 64 -47 19 0 43 15 80 50 l53 50 -1 -37 c-2
-69 63 -74 142 -13 54 43 81 113 48 126 -8 3 -13 11 -10 18 3 7 -5 21 -16 31
-20 18 -21 18 -48 -2 -15 -11 -46 -43 -69 -72 -24 -28 -43 -49 -43 -46 0 4
-26 -14 -58 -39 -94 -74 -107 -56 -42 61 39 71 40 72 92 81 l53 10 -42 1 c-24
0 -43 3 -43 5 0 2 7 17 15 32 17 33 20 74 6 74 -6 0 -27 -25 -48 -55z m252
-115 c10 -15 -31 -66 -80 -100 -85 -58 -88 -30 -7 52 59 58 75 67 87 48z"/>
<path d="M1575 899 c-117 -135 -137 -217 -64 -255 l29 -15 0 34 c0 21 21 77
55 146 82 167 74 200 -20 90z"/>
<path d="M2388 909 c-27 -15 -39 -44 -29 -71 7 -19 3 -29 -23 -57 l-31 -35 42
32 c22 18 56 39 75 47 21 9 26 14 14 15 -15 0 -16 3 -6 15 15 17 5 65 -13 65
-6 0 -20 -5 -29 -11z"/>
<path d="M3330 891 c0 -33 -130 -185 -145 -169 -2 1 3 28 11 58 15 58 11 90
-10 90 -8 0 -44 -34 -81 -75 -63 -71 -85 -88 -85 -66 0 6 21 40 46 77 35 52
43 69 32 75 -23 15 -32 9 -71 -42 -74 -98 -86 -161 -31 -175 31 -8 59 16 117
101 49 72 62 55 23 -30 -18 -40 -37 -63 -73 -87 -63 -43 -113 -92 -113 -111 0
-23 28 -47 54 -47 30 0 87 61 130 140 19 36 51 78 71 93 38 30 40 30 25 -7
-20 -53 14 -76 42 -28 20 33 132 142 147 142 15 0 14 -4 -14 -60 -30 -59 -31
-81 -7 -103 26 -23 36 -21 75 13 l34 29 11 -24 c27 -59 125 -30 213 62 l44 47
-42 -33 c-23 -17 -68 -45 -100 -61 -98 -50 -118 -36 -59 42 44 58 85 86 97 67
8 -12 11 -11 19 1 14 21 12 52 -5 74 -13 18 -17 18 -41 5 -32 -17 -100 -92
-123 -136 -17 -34 -84 -90 -89 -75 -1 5 11 37 27 71 21 45 27 69 22 85 -14 36
-44 30 -107 -21 l-59 -48 23 36 c26 42 28 72 7 89 -11 9 -15 9 -15 1z m-250
-260 c0 -15 -61 -86 -85 -99 -58 -30 -29 31 38 79 44 32 47 33 47 20z"/>
<path d="M2463 837 c3 -8 -7 -30 -22 -48 -53 -65 -64 -106 -36 -129 22 -18 40
-7 131 79 84 80 83 86 -4 13 -29 -25 -55 -42 -58 -40 -3 3 4 21 15 39 28 46
27 73 -5 88 -22 10 -25 9 -21 -2z"/>
</g>
</svg>
